<svg xmlns="http://www.w3.org/2000/svg" width="500" height="500" viewBox="0 0 500 500" version="1.1"><path d="M 114.638 186.500 C 114.955 187.325, 115.642 188, 116.166 188 C 116.690 188, 116.854 188.427, 116.531 188.950 C 115.801 190.131, 119.443 192.195, 120.528 191.215 C 120.963 190.822, 121.027 191.311, 120.671 192.302 C 120.314 193.293, 120.429 193.853, 120.926 193.546 C 121.423 193.239, 122.057 193.553, 122.336 194.244 C 122.714 195.182, 122.862 195.154, 122.921 194.133 C 122.991 192.920, 115.715 185, 114.530 185 C 114.273 185, 114.322 185.675, 114.638 186.500 M 87.923 187.250 C 87.047 190.115, 87.401 190.645, 89.862 190.155 L 92.500 189.631 90 188.968 L 87.500 188.305 90 187.789 C 92.332 187.307, 92.349 187.263, 90.250 187.136 C 89.013 187.061, 87.966 187.113, 87.923 187.250 M 78.568 196.317 C 78.964 197.349, 78.426 197.662, 76.602 197.462 C 75.221 197.310, 73.604 197.772, 73.010 198.488 C 72.188 199.478, 72.357 199.755, 73.715 199.645 C 74.697 199.565, 75.803 199.079, 76.174 198.564 C 76.580 198, 77.391 198.079, 78.215 198.763 C 79.287 199.654, 79.613 199.482, 79.727 197.969 C 79.807 196.908, 79.457 195.782, 78.948 195.468 C 78.439 195.153, 78.268 195.535, 78.568 196.317 M 122.775 198.558 C 122.025 199.308, 123.036 203, 123.992 203 C 124.409 203, 124.750 201.875, 124.750 200.500 C 124.750 198.113, 123.979 197.355, 122.775 198.558 M 68.791 202.750 C 68.066 204.262, 66.917 205.500, 66.237 205.500 C 63.839 205.500, 65.011 207.425, 67.489 207.557 C 68.870 207.631, 70 207.284, 70 206.787 C 70 206.289, 70.354 206.100, 70.786 206.368 C 71.218 206.635, 71.571 206.019, 71.571 205 C 71.571 203.981, 71.218 203.365, 70.786 203.632 C 70.354 203.900, 70 203.390, 70 202.500 C 70 201.532, 70.464 201.168, 71.155 201.595 C 71.870 202.038, 72.038 201.870, 71.595 201.155 C 70.573 199.500, 70.265 199.675, 68.791 202.750 M 114.786 206.341 C 114.446 208.119, 114.709 209, 115.580 209 C 117.612 209, 118.063 207.469, 116.615 205.488 C 115.387 203.808, 115.258 203.868, 114.786 206.341 M 115.559 210.532 C 113.037 212.439, 114.961 212.423, 118.636 210.506 C 120.926 209.311, 121.099 209.017, 119.500 209.038 C 118.400 209.052, 116.626 209.724, 115.559 210.532 M 61 213.047 C 59.625 214.149, 59.175 214.926, 60 214.775 C 60.825 214.624, 61.402 215.019, 61.282 215.654 C 61.162 216.289, 61.678 217.318, 62.428 217.941 C 63.522 218.848, 63.764 218.588, 63.646 216.632 C 63.566 215.290, 63.163 214.400, 62.750 214.655 C 61.543 215.400, 61.889 213.511, 63.200 212.200 C 65.072 210.328, 63.766 210.831, 61 213.047 M 84 211.383 C 84 211.594, 85.125 211.982, 86.500 212.245 C 87.875 212.508, 89 212.335, 89 211.861 C 89 211.388, 87.875 211, 86.500 211 C 85.125 211, 84 211.173, 84 211.383 M 58.247 217.977 C 56.530 220.725, 56.685 221.458, 58.580 219.563 C 59.450 218.693, 60.011 217.532, 59.827 216.981 C 59.644 216.431, 58.932 216.879, 58.247 217.977 M 73.089 218.167 C 73.629 219.175, 74.184 220, 74.322 220 C 74.461 220, 74.637 219.175, 74.712 218.167 C 74.788 217.158, 74.234 216.333, 73.479 216.333 C 72.459 216.333, 72.359 216.803, 73.089 218.167 M 54.405 225.845 C 54.797 226.480, 54.694 227, 54.176 227 C 53.657 227, 52.998 227.900, 52.710 229 C 52.022 231.632, 52.427 231.523, 54.374 228.552 C 55.529 226.789, 55.658 225.907, 54.834 225.398 C 54.130 224.962, 53.965 225.134, 54.405 225.845 M 50.980 234.250 C 49.908 236.461, 49.918 236.466, 51.564 234.500 C 53.193 232.553, 53.220 232.575, 52.579 235.334 C 52.148 237.187, 52.280 237.945, 52.960 237.525 C 54.271 236.715, 54.335 232, 53.035 232 C 52.505 232, 51.580 233.012, 50.980 234.250 M 59.250 236.662 C 57.492 237.372, 57.688 240, 59.500 240 C 60.333 240, 61 239.111, 61 238 C 61 236.900, 60.888 236.036, 60.750 236.079 C 60.612 236.122, 59.938 236.385, 59.250 236.662 M 117.952 251.051 C 117.154 251.556, 116.950 251.983, 117.500 252 C 118.050 252.017, 117.825 252.467, 117 253 C 116.175 253.533, 115.976 253.976, 116.559 253.985 C 117.141 253.993, 118.447 253.394, 119.460 252.653 C 121.559 251.118, 120.173 249.646, 117.952 251.051 M 120.500 253.423 C 118.850 254.122, 116.846 256, 116.047 257.597 C 113.815 262.058, 113.704 262.676, 115.529 260.500 C 117.202 258.506, 117.205 258.506, 116.596 260.561 C 116.107 262.210, 116.701 262.964, 119.562 264.328 C 121.529 265.266, 122.888 265.627, 122.581 265.131 C 122.274 264.634, 122.917 263.993, 124.011 263.707 C 125.197 263.397, 126 262.342, 126 261.094 C 126 257.719, 126.031 257.601, 127.538 255.302 C 128.587 253.700, 128.668 252.913, 127.834 252.398 C 127.130 251.962, 126.965 252.134, 127.405 252.845 C 127.852 253.569, 127.381 254, 126.142 254 C 125.056 254, 124.017 253.584, 123.833 253.076 C 123.645 252.554, 122.196 252.705, 120.500 253.423 M 171.217 257.016 C 171.100 259.694, 171.454 262.162, 172.002 262.501 C 172.615 262.880, 173 261.189, 173 258.118 C 173 251.610, 171.492 250.678, 171.217 257.016 M 119 257.227 C 119 259.050, 120.773 260.561, 121.757 259.576 C 122.100 259.233, 121.620 258.192, 120.690 257.262 C 119.132 255.703, 119 255.700, 119 257.227 M 53.336 279.081 C 53.440 281.989, 53.956 283.662, 54.750 283.664 C 56.249 283.667, 56.398 282.364, 54.997 281.498 C 54.327 281.084, 54.327 280.257, 54.997 279.005 C 56.246 276.672, 56.279 275.710, 55.085 276.447 C 54.582 276.758, 53.946 276.447, 53.672 275.756 C 53.397 275.065, 53.246 276.561, 53.336 279.081 M 170.931 280.191 C 170.573 281.798, 170.182 286.139, 170.421 285.860 C 171.960 284.061, 172.855 281.029, 172.003 280.502 C 171.451 280.161, 170.969 280.021, 170.931 280.191 M 58.507 290.007 C 59.330 290.918, 59.666 292.061, 59.252 292.548 C 58.838 293.035, 59.216 292.890, 60.092 292.226 C 61.664 291.032, 63 291.491, 63 293.226 C 63 293.716, 62.505 293.812, 61.900 293.438 C 61.101 292.944, 61.100 293.319, 61.899 294.812 C 63.146 297.141, 66.402 298.487, 68.161 297.401 C 68.944 296.917, 69.137 297.200, 68.737 298.242 C 68.376 299.183, 69.009 300.550, 70.317 301.656 L 72.500 303.500 70.500 301.080 C 68.868 299.106, 68.803 298.771, 70.151 299.261 C 71.312 299.683, 71.729 299.362, 71.555 298.181 C 71.394 297.081, 70.304 296.462, 68.404 296.389 C 63.083 296.185, 62.842 296.072, 63.473 294.084 C 63.808 293.030, 63.613 291.879, 63.041 291.525 C 61.548 290.602, 61.750 288.738, 63.250 289.601 C 63.938 289.997, 64.154 289.940, 63.732 289.476 C 63.310 289.011, 61.624 288.568, 59.987 288.492 C 57.276 288.365, 57.143 288.501, 58.507 290.007 M 166.116 290.550 C 166.052 291.678, 165.552 293.142, 165.004 293.804 C 164.456 294.466, 164.724 294.384, 165.600 293.622 C 166.476 292.860, 166.976 291.396, 166.712 290.368 C 166.279 288.684, 166.221 288.702, 166.116 290.550 M 77.015 292.750 C 77.024 293.163, 77.449 294.162, 77.961 294.971 C 79.113 296.793, 80.465 295.653, 79.655 293.543 C 79.057 291.985, 76.987 291.363, 77.015 292.750 M 146.773 306.591 C 147.330 309.506, 147.611 309.595, 148.273 307.065 C 148.551 306, 148.224 304.916, 147.546 304.656 C 146.710 304.335, 146.461 304.959, 146.773 306.591 M 80.551 306.903 C 78.831 307.576, 78.976 307.796, 81.779 308.773 C 83.789 309.474, 85.175 309.526, 85.552 308.915 C 85.880 308.385, 85.778 308.015, 85.324 308.094 C 84.871 308.172, 83.825 308.152, 83 308.048 C 81.929 307.913, 82.072 307.614, 83.500 307 C 86.027 305.914, 83.307 305.825, 80.551 306.903 M 133.917 308.344 C 133.871 308.430, 133.728 309.416, 133.600 310.536 C 133.443 311.899, 133.946 312.571, 135.122 312.571 C 137.606 312.571, 138.246 309.298, 135.884 308.680 C 134.848 308.409, 133.963 308.258, 133.917 308.344" stroke="none" fill="#4b4ee7" fill-rule="evenodd"/><path d="M 118.120 224 C 114.281 228.778, 113.402 228.851, 101.493 225.377 C 90.105 222.055, 84.716 221.397, 83.369 223.165 C 82.809 223.899, 81.593 227.200, 80.667 230.500 C 79.741 233.800, 77.170 242.800, 74.954 250.500 C 72.680 258.401, 71.171 265.496, 71.491 266.785 C 72.165 269.511, 73.258 269.958, 91.979 275.158 C 99.965 277.376, 108.525 279.762, 111 280.460 C 135.650 287.407, 142.241 288.978, 144.434 288.427 C 147.248 287.721, 148.285 285.343, 152.899 269 C 160.444 242.280, 160.435 242.122, 151.308 239.520 C 144.593 237.605, 143.006 235.992, 142.985 231.059 C 142.976 229.101, 142.639 226.984, 142.235 226.353 C 141.651 225.441, 124.259 220.004, 121.917 220.001 C 121.597 220, 119.888 221.800, 118.120 224 M 87.102 227.377 C 85.612 229.173, 87.059 230.655, 91.500 231.883 C 96.910 233.379, 99 233.282, 99 231.535 C 99 228.805, 88.859 225.260, 87.102 227.377 M 115.216 236.892 C 106.327 239.960, 101.280 246.569, 100.336 256.378 C 99.674 263.248, 103.617 271.182, 109.836 275.494 C 113.743 278.203, 114.937 278.500, 121.909 278.500 C 128.681 278.500, 130.166 278.156, 133.814 275.741 C 139.603 271.911, 142.999 266.410, 143.686 259.752 C 144.417 252.666, 142.757 247.776, 137.787 242.385 C 131.864 235.959, 123.685 233.969, 115.216 236.892 M 114 242.214 C 104.015 247.480, 101.949 262.168, 110.135 269.702 C 113.948 273.212, 119.820 275.255, 123.912 274.496 C 132.986 272.811, 139.167 265.942, 139.167 257.542 C 139.167 244.396, 125.568 236.114, 114 242.214 M 115.299 245.960 C 106.546 251.296, 106.934 264.375, 115.981 268.990 C 120.775 271.436, 123.135 271.504, 127.717 269.330 C 134.083 266.309, 136.982 257.474, 133.721 251.030 C 130.516 244.696, 121.459 242.203, 115.299 245.960 M 119 248.709 C 116.929 249.471, 114 252.118, 114 253.228 C 114 253.732, 115.186 253.212, 116.635 252.073 C 118.084 250.933, 120.493 250, 121.989 250 C 125.591 250, 129.969 254.149, 130.116 257.702 C 130.192 259.540, 130.394 259.872, 130.705 258.671 C 132.198 252.892, 124.784 246.583, 119 248.709" stroke="none" fill="#3fd9bf" fill-rule="evenodd"/><path d="M 91.487 183.799 C 77.120 188.767, 65.309 199.903, 56.087 217.176 C 49.684 229.168, 46.802 239.682, 46.246 253.070 C 45.449 272.283, 50.084 285.869, 61.365 297.391 C 66.924 303.067, 80.259 311.576, 81.955 310.528 C 82.530 310.173, 83 310.322, 83 310.861 C 83 313.420, 103.862 318, 115.516 318 C 133.184 318, 148.311 312.554, 160.759 301.711 C 181.744 283.434, 185.742 256.579, 169.764 241.227 C 167.890 239.427, 165.384 237.767, 164.195 237.538 C 162.142 237.142, 162.111 237.239, 163.574 239.473 C 164.664 241.136, 165.025 243.726, 164.808 248.310 C 164.638 251.877, 164.239 254.637, 163.920 254.444 C 163.601 254.251, 161.388 261.159, 159.002 269.796 C 156.615 278.433, 153.858 287.132, 152.874 289.126 C 151.891 291.121, 151.404 293.105, 151.793 293.537 C 152.182 293.968, 151.918 293.985, 151.206 293.574 C 150.495 293.164, 149.309 293.328, 148.572 293.940 C 145.972 296.098, 140.299 295.239, 121 289.765 C 110.275 286.723, 95.425 282.537, 88 280.463 C 72.096 276.019, 68.617 274.521, 66.943 271.394 C 66.259 270.115, 65.386 269.261, 65.004 269.497 C 63.895 270.183, 65.668 260.711, 68.327 251.748 C 69.673 247.212, 72.008 239, 73.516 233.500 C 76.669 222.006, 77.530 220.067, 80.399 218 C 84.071 215.355, 88.038 215.078, 94.433 217.022 C 97.770 218.036, 103.070 219.524, 106.211 220.328 L 111.923 221.790 114.560 218.333 C 117.947 213.892, 120.796 212.818, 125.424 214.238 C 130.977 215.942, 131.468 214.667, 128.995 204.979 C 125.481 191.216, 121.697 186.016, 113.101 183.138 C 108.130 181.474, 97.249 181.806, 91.487 183.799 M 114.638 186.500 C 114.955 187.325, 115.642 188, 116.166 188 C 116.690 188, 116.854 188.427, 116.531 188.950 C 115.801 190.131, 119.443 192.195, 120.528 191.215 C 120.963 190.822, 121.027 191.311, 120.671 192.302 C 120.314 193.293, 120.429 193.853, 120.926 193.546 C 121.423 193.239, 122.057 193.553, 122.336 194.244 C 122.714 195.182, 122.862 195.154, 122.921 194.133 C 122.991 192.920, 115.715 185, 114.530 185 C 114.273 185, 114.322 185.675, 114.638 186.500 M 87.923 187.250 C 87.047 190.115, 87.401 190.645, 89.862 190.155 L 92.500 189.631 90 188.968 L 87.500 188.305 90 187.789 C 92.332 187.307, 92.349 187.263, 90.250 187.136 C 89.013 187.061, 87.966 187.113, 87.923 187.250 M 78.568 196.317 C 78.964 197.349, 78.426 197.662, 76.602 197.462 C 75.221 197.310, 73.604 197.772, 73.010 198.488 C 72.188 199.478, 72.357 199.755, 73.715 199.645 C 74.697 199.565, 75.803 199.079, 76.174 198.564 C 76.580 198, 77.391 198.079, 78.215 198.763 C 79.287 199.654, 79.613 199.482, 79.727 197.969 C 79.807 196.908, 79.457 195.782, 78.948 195.468 C 78.439 195.153, 78.268 195.535, 78.568 196.317 M 122.775 198.558 C 122.025 199.308, 123.036 203, 123.992 203 C 124.409 203, 124.750 201.875, 124.750 200.500 C 124.750 198.113, 123.979 197.355, 122.775 198.558 M 68.791 202.750 C 68.066 204.262, 66.917 205.500, 66.237 205.500 C 63.839 205.500, 65.011 207.425, 67.489 207.557 C 68.870 207.631, 70 207.284, 70 206.787 C 70 206.289, 70.354 206.100, 70.786 206.368 C 71.218 206.635, 71.571 206.019, 71.571 205 C 71.571 203.981, 71.218 203.365, 70.786 203.632 C 70.354 203.900, 70 203.390, 70 202.500 C 70 201.532, 70.464 201.168, 71.155 201.595 C 71.870 202.038, 72.038 201.870, 71.595 201.155 C 70.573 199.500, 70.265 199.675, 68.791 202.750 M 114.786 206.341 C 114.446 208.119, 114.709 209, 115.580 209 C 117.612 209, 118.063 207.469, 116.615 205.488 C 115.387 203.808, 115.258 203.868, 114.786 206.341 M 91.743 208.750 C 91.537 209.162, 91.398 210.385, 91.434 211.466 C 91.522 214.088, 100.507 217.654, 102.617 215.903 C 105.021 213.908, 104.162 213.053, 98.036 211.350 C 94.756 210.438, 92.308 209.311, 92.595 208.846 C 92.883 208.381, 92.893 208, 92.618 208 C 92.343 208, 91.949 208.338, 91.743 208.750 M 115.559 210.532 C 113.037 212.439, 114.961 212.423, 118.636 210.506 C 120.926 209.311, 121.099 209.017, 119.500 209.038 C 118.400 209.052, 116.626 209.724, 115.559 210.532 M 61 213.047 C 59.625 214.149, 59.175 214.926, 60 214.775 C 60.825 214.624, 61.402 215.019, 61.282 215.654 C 61.162 216.289, 61.678 217.318, 62.428 217.941 C 63.522 218.848, 63.764 218.588, 63.646 216.632 C 63.566 215.290, 63.163 214.400, 62.750 214.655 C 61.543 215.400, 61.889 213.511, 63.200 212.200 C 65.072 210.328, 63.766 210.831, 61 213.047 M 84 211.383 C 84 211.594, 85.125 211.982, 86.500 212.245 C 87.875 212.508, 89 212.335, 89 211.861 C 89 211.388, 87.875 211, 86.500 211 C 85.125 211, 84 211.173, 84 211.383 M 58.247 217.977 C 56.530 220.725, 56.685 221.458, 58.580 219.563 C 59.450 218.693, 60.011 217.532, 59.827 216.981 C 59.644 216.431, 58.932 216.879, 58.247 217.977 M 73.089 218.167 C 73.629 219.175, 74.184 220, 74.322 220 C 74.461 220, 74.637 219.175, 74.712 218.167 C 74.788 217.158, 74.234 216.333, 73.479 216.333 C 72.459 216.333, 72.359 216.803, 73.089 218.167 M 54.405 225.845 C 54.797 226.480, 54.694 227, 54.176 227 C 53.657 227, 52.998 227.900, 52.710 229 C 52.022 231.632, 52.427 231.523, 54.374 228.552 C 55.529 226.789, 55.658 225.907, 54.834 225.398 C 54.130 224.962, 53.965 225.134, 54.405 225.845 M 50.980 234.250 C 49.908 236.461, 49.918 236.466, 51.564 234.500 C 53.193 232.553, 53.220 232.575, 52.579 235.334 C 52.148 237.187, 52.280 237.945, 52.960 237.525 C 54.271 236.715, 54.335 232, 53.035 232 C 52.505 232, 51.580 233.012, 50.980 234.250 M 59.250 236.662 C 57.492 237.372, 57.688 240, 59.500 240 C 60.333 240, 61 239.111, 61 238 C 61 236.900, 60.888 236.036, 60.750 236.079 C 60.612 236.122, 59.938 236.385, 59.250 236.662 M 119.882 250.750 C 119.816 251.162, 119.828 251.871, 119.907 252.325 C 119.986 252.779, 119.177 252.874, 118.109 252.535 C 117.042 252.196, 115.874 252.394, 115.515 252.976 C 115.156 253.557, 114.555 253.843, 114.181 253.612 C 113.806 253.380, 113.500 254.948, 113.500 257.095 C 113.500 259.243, 113.838 261, 114.250 261 C 114.663 261, 114.888 261.536, 114.750 262.191 C 114.612 262.846, 116.188 264.309, 118.250 265.441 L 122 267.500 125.750 265.441 C 129.557 263.351, 129.696 263.045, 128.440 259.500 L 127.731 257.500 129.333 259.500 C 130.850 261.393, 130.885 261.312, 129.985 258 C 128.910 254.038, 124.851 250, 121.944 250 C 120.875 250, 119.947 250.338, 119.882 250.750 M 121.249 253.090 C 120.011 253.555, 118.436 253.799, 117.749 253.632 C 117.062 253.465, 116.860 253.524, 117.300 253.764 C 117.739 254.004, 117.378 255.300, 116.497 256.645 C 114.346 259.928, 115.294 262.293, 119.580 264.337 C 121.537 265.270, 122.888 265.627, 122.581 265.131 C 122.274 264.634, 122.917 263.993, 124.011 263.707 C 125.197 263.397, 126 262.342, 126 261.094 C 126 258.116, 126.087 257.706, 127.134 255.750 C 127.877 254.361, 127.668 254, 126.119 254 C 125.045 254, 124.017 253.605, 123.833 253.122 C 123.646 252.628, 122.513 252.615, 121.249 253.090 M 171.217 257.016 C 171.100 259.694, 171.454 262.162, 172.002 262.501 C 172.615 262.880, 173 261.189, 173 258.118 C 173 251.610, 171.492 250.678, 171.217 257.016 M 119 257.227 C 119 259.050, 120.773 260.561, 121.757 259.576 C 122.100 259.233, 121.620 258.192, 120.690 257.262 C 119.132 255.703, 119 255.700, 119 257.227 M 120.250 270.689 C 121.213 270.941, 122.787 270.941, 123.750 270.689 C 124.713 270.438, 123.925 270.232, 122 270.232 C 120.075 270.232, 119.287 270.438, 120.250 270.689 M 53.336 279.081 C 53.440 281.989, 53.956 283.662, 54.750 283.664 C 56.249 283.667, 56.398 282.364, 54.997 281.498 C 54.327 281.084, 54.327 280.257, 54.997 279.005 C 56.246 276.672, 56.279 275.710, 55.085 276.447 C 54.582 276.758, 53.946 276.447, 53.672 275.756 C 53.397 275.065, 53.246 276.561, 53.336 279.081 M 170.931 280.191 C 170.573 281.798, 170.182 286.139, 170.421 285.860 C 171.960 284.061, 172.855 281.029, 172.003 280.502 C 171.451 280.161, 170.969 280.021, 170.931 280.191 M 58.507 290.007 C 59.330 290.918, 59.666 292.061, 59.252 292.548 C 58.838 293.035, 59.216 292.890, 60.092 292.226 C 61.664 291.032, 63 291.491, 63 293.226 C 63 293.716, 62.505 293.812, 61.900 293.438 C 61.101 292.944, 61.100 293.319, 61.899 294.812 C 63.146 297.141, 66.402 298.487, 68.161 297.401 C 68.944 296.917, 69.137 297.200, 68.737 298.242 C 68.376 299.183, 69.009 300.550, 70.317 301.656 L 72.500 303.500 70.500 301.080 C 68.868 299.106, 68.803 298.771, 70.151 299.261 C 71.312 299.683, 71.729 299.362, 71.555 298.181 C 71.394 297.081, 70.304 296.462, 68.404 296.389 C 63.083 296.185, 62.842 296.072, 63.473 294.084 C 63.808 293.030, 63.613 291.879, 63.041 291.525 C 61.548 290.602, 61.750 288.738, 63.250 289.601 C 63.938 289.997, 64.154 289.940, 63.732 289.476 C 63.310 289.011, 61.624 288.568, 59.987 288.492 C 57.276 288.365, 57.143 288.501, 58.507 290.007 M 166.116 290.550 C 166.052 291.678, 165.552 293.142, 165.004 293.804 C 164.456 294.466, 164.724 294.384, 165.600 293.622 C 166.476 292.860, 166.976 291.396, 166.712 290.368 C 166.279 288.684, 166.221 288.702, 166.116 290.550 M 77.015 292.750 C 77.024 293.163, 77.449 294.162, 77.961 294.971 C 79.113 296.793, 80.465 295.653, 79.655 293.543 C 79.057 291.985, 76.987 291.363, 77.015 292.750 M 146.773 306.591 C 147.330 309.506, 147.611 309.595, 148.273 307.065 C 148.551 306, 148.224 304.916, 147.546 304.656 C 146.710 304.335, 146.461 304.959, 146.773 306.591 M 80.551 306.903 C 78.831 307.576, 78.976 307.796, 81.779 308.773 C 83.789 309.474, 85.175 309.526, 85.552 308.915 C 85.880 308.385, 85.778 308.015, 85.324 308.094 C 84.871 308.172, 83.825 308.152, 83 308.048 C 81.929 307.913, 82.072 307.614, 83.500 307 C 86.027 305.914, 83.307 305.825, 80.551 306.903 M 133.917 308.344 C 133.871 308.430, 133.728 309.416, 133.600 310.536 C 133.443 311.899, 133.946 312.571, 135.122 312.571 C 137.606 312.571, 138.246 309.298, 135.884 308.680 C 134.848 308.409, 133.963 308.258, 133.917 308.344" stroke="none" fill="#464bd3" fill-rule="evenodd"/><path d="M 205.750 200.800 L 200 201.100 200 220.050 L 200 239 206.500 239 L 213 239 213 220.059 C 213 209.641, 212.662 200.979, 212.250 200.809 C 211.838 200.639, 208.912 200.635, 205.750 200.800 M 217 223.500 L 217 239 223.500 239 L 230 239 230 231.547 C 230 223.266, 231.402 219, 234.125 219 C 236.956 219, 238 222.216, 238 230.934 L 238 239 244.500 239 L 251 239 251 230.934 C 251 222.171, 252.044 219, 254.928 219 C 257.501 219, 258 220.882, 258 230.582 L 258 239 264.891 239 L 271.781 239 271.561 229.750 C 271.219 215.429, 271.190 215.287, 267.896 211.535 C 265.119 208.371, 264.266 208, 259.781 208 C 255.583 208, 254.358 208.449, 252.232 210.770 L 249.694 213.540 246.924 210.770 C 243.349 207.195, 235.651 206.814, 232.189 210.039 L 230 212.078 230 210.039 C 230 208.196, 229.375 208, 223.500 208 L 217 208 217 223.500 M 281.175 209.254 C 275.724 211.876, 273.134 224.598, 276.440 232.510 C 279.074 238.814, 287.750 241.965, 292.777 238.443 C 294.023 237.571, 295 237.351, 295 237.943 C 295 238.585, 297.757 239, 302.026 239 L 309.052 239 308.776 223.750 L 308.500 208.500 302.666 208.198 C 299.457 208.031, 296.292 208.343, 295.632 208.890 C 294.883 209.512, 293.883 209.538, 292.966 208.958 C 290.982 207.703, 284.037 207.877, 281.175 209.254 M 317.106 210.564 C 309.813 216.701, 310.596 233.343, 318.401 238.103 L 321.500 239.993 316.750 239.996 C 311.564 240, 311.210 240.571, 313.566 245.128 C 316.817 251.414, 329.943 254.026, 338.576 250.105 C 345.144 247.122, 346 244.181, 346 224.599 L 346 208 339.500 208 C 334.284 208, 333 208.307, 333 209.557 C 333 210.966, 332.789 210.966, 330.777 209.557 C 327.233 207.074, 320.680 207.557, 317.106 210.564 M 356.984 209.863 C 352.155 212.445, 349.941 216.649, 349.860 223.386 C 349.744 233.110, 354.936 238.998, 364.312 239.776 C 370.794 240.313, 377.912 237.590, 380.551 233.562 C 382.629 230.390, 382.453 230.174, 376.888 229.081 L 372.500 228.219 377.870 228.110 L 383.240 228 382.821 222.205 C 382.342 215.574, 380.169 211.968, 375.216 209.582 C 370.663 207.388, 361.344 207.532, 356.984 209.863 M 91.500 211 C 90.483 212.646, 91.751 213.727, 96.658 215.399 C 100.122 216.580, 101.657 216.700, 102.656 215.870 C 104.938 213.977, 104.191 213.134, 98.818 211.539 C 92.704 209.723, 92.307 209.694, 91.500 211 M 119.355 214.002 C 118.175 214.472, 116.021 216.418, 114.567 218.324 L 111.923 221.790 106.211 220.328 C 103.070 219.524, 97.770 218.036, 94.433 217.022 C 88.038 215.078, 84.071 215.355, 80.399 218 C 77.532 220.066, 76.672 222, 73.506 233.500 C 71.992 239, 69.459 247.946, 67.877 253.380 C 64.553 264.794, 64.388 267.156, 66.648 270.981 C 68.792 274.610, 71.741 275.920, 88 280.463 C 95.425 282.537, 110.275 286.723, 121 289.765 C 141.361 295.540, 145.425 296.078, 149.334 293.517 C 152.589 291.384, 153.464 289.169, 159.605 267.500 C 165.377 247.133, 165.945 242.795, 163.327 239.057 C 162.094 237.296, 162.028 236.880, 163.077 237.475 C 164.178 238.099, 164.156 237.914, 162.982 236.659 C 162.148 235.766, 159.010 234.202, 156.009 233.182 C 150.955 231.464, 150.478 231.027, 149.527 227.251 C 148.073 221.478, 145.856 219.528, 138.473 217.530 C 134.913 216.566, 132 215.457, 132 215.064 C 132 214.671, 130.537 214.376, 128.750 214.407 C 126.963 214.439, 124.600 214.168, 123.500 213.805 C 122.400 213.442, 120.535 213.531, 119.355 214.002 M 119.288 216.650 C 118.621 216.920, 117.122 218.685, 115.956 220.571 C 113.334 224.814, 112.391 224.836, 98.998 220.967 C 87.324 217.594, 82.905 217.689, 80.496 221.365 C 78.516 224.387, 68 261.483, 68 265.445 C 68 271.916, 69.899 273.109, 88 278.012 C 94.325 279.725, 104.900 282.665, 111.500 284.545 C 139.668 292.570, 142.070 293.144, 144.912 292.519 C 146.496 292.171, 148.521 291.081, 149.412 290.097 C 151.689 287.581, 163.160 246.484, 162.414 243.514 C 161.571 240.155, 159.129 238.262, 152.917 236.150 C 147.554 234.328, 147.493 234.262, 146.811 229.501 C 146.432 226.857, 145.523 224.095, 144.791 223.363 C 144.059 222.631, 138.627 220.675, 132.720 219.016 C 121.582 215.889, 121.291 215.837, 119.288 216.650 M 289.058 219.430 C 288.405 220.217, 288.012 222.579, 288.185 224.680 C 288.474 228.188, 288.745 228.500, 291.500 228.500 C 294.255 228.500, 294.526 228.188, 294.815 224.680 C 295.135 220.785, 293.754 218, 291.500 218 C 290.810 218, 289.711 218.644, 289.058 219.430 M 326.571 219.571 C 324.712 221.431, 324.501 226.101, 326.200 227.800 C 329.441 231.041, 333.764 227.179, 332.506 222.167 C 331.463 218.011, 329.145 216.997, 326.571 219.571 M 363.694 218.639 C 362.467 219.867, 364.141 221, 367.181 221 C 369.791 221, 370.060 220.778, 369 219.500 C 367.725 217.964, 364.838 217.496, 363.694 218.639 M 87.154 228.564 C 87.529 230.507, 95.373 233.451, 97.750 232.541 C 101.278 231.191, 97.710 228.457, 91.024 227.388 C 87.263 226.787, 86.837 226.916, 87.154 228.564 M 364.577 229.125 C 364.875 229.606, 365.740 230, 366.500 230 C 367.260 230, 368.125 229.606, 368.423 229.125 C 368.720 228.644, 367.855 228.250, 366.500 228.250 C 365.145 228.250, 364.280 228.644, 364.577 229.125 M 112.486 238.300 C 100.136 244.186, 96.773 260.534, 105.753 271.025 C 114.205 280.898, 127.874 281.569, 137.241 272.569 C 143.951 266.122, 145.551 255.219, 140.987 247.044 C 135.358 236.962, 123.151 233.216, 112.486 238.300 M 331.017 237.480 C 330.319 238.320, 328.343 239.376, 326.624 239.825 C 323.509 240.641, 323.507 240.647, 325.788 241.877 C 328.846 243.527, 331.854 242.430, 332.618 239.387 C 333.391 236.304, 332.688 235.466, 331.017 237.480 M 114.502 241.518 C 110.749 243.546, 108.124 245.899, 106.751 248.465 C 101.993 257.357, 105.646 269.118, 114.401 273.095 C 119.869 275.578, 124.641 275.473, 130.030 272.750 C 141.677 266.866, 142.989 251.433, 132.521 243.448 C 127.875 239.905, 119.207 238.976, 114.502 241.518 M 116.256 245.597 C 109.829 248.860, 107.316 256.650, 110.516 263.393 C 114.590 271.978, 128.425 272.322, 133.364 263.960 C 136.478 258.690, 134.509 249.874, 129.484 246.582 C 125.772 244.149, 119.960 243.717, 116.256 245.597 M 116.077 250.589 C 108.478 256.983, 115.918 269.762, 125.040 265.984 C 131.613 263.261, 133.090 255.936, 128.077 250.923 C 124.350 247.197, 120.244 247.082, 116.077 250.589 M 243 276.594 C 243 285.333, 243.142 286, 245 286 C 246.400 286, 247 285.333, 247 283.777 L 247 281.555 248.557 283.777 C 249.413 285, 250.988 286, 252.057 286 C 254.505 286, 254.489 285.496, 251.932 281.904 L 249.864 279 252 276 C 253.921 273.302, 253.961 273, 252.397 273 C 251.440 273, 249.835 273.745, 248.829 274.655 C 247.086 276.232, 247 276.121, 247 272.272 C 247 269.074, 246.583 268.124, 245 267.710 C 243.105 267.215, 243 267.680, 243 276.594 M 199.503 268.831 C 199.226 269.107, 199 273.105, 199 277.714 L 199 286.095 205.225 285.798 C 210.711 285.535, 211.596 285.205, 212.685 283.014 C 213.678 281.015, 213.661 280.131, 212.597 278.508 C 211.861 277.385, 211.485 275.055, 211.749 273.256 C 212.068 271.084, 211.777 269.869, 210.862 269.554 C 208.740 268.822, 200.064 268.270, 199.503 268.831 M 333 270.827 C 333 273.401, 332.731 273.614, 329.991 273.212 C 325.771 272.593, 324 274.451, 324 279.500 C 324 284.179, 325.536 286.133, 329.170 286.075 C 330.452 286.055, 332.738 286.037, 334.250 286.035 L 337 286.032 337 277.016 C 337 268.667, 336.852 268, 335 268 C 333.472 268, 333 268.667, 333 270.827 M 346 277.238 C 346 285.333, 346.152 286, 348 286 C 349.619 286, 350 285.333, 350 282.500 C 350 280.140, 350.463 279, 351.422 279 C 352.205 279, 353.365 280.575, 354 282.500 C 354.787 284.886, 355.767 286, 357.078 286 C 359.374 286, 359.443 285.304, 357.587 280.863 C 356.401 278.024, 356.390 277.187, 357.519 275.643 C 358.375 274.473, 358.576 273.023, 358.072 271.652 C 357.426 269.895, 356.246 269.406, 351.640 268.988 L 346 268.476 346 277.238 M 264 272 C 264 272.550, 262.762 273.007, 261.250 273.015 C 256.921 273.039, 256.108 274.123, 256.152 279.806 C 256.174 282.698, 255.691 285.667, 255.079 286.405 C 251.390 290.849, 261.743 294.257, 266 290 C 267.100 288.900, 268 287.582, 268 287.071 C 268 285.143, 264.740 282.997, 261.679 282.910 L 258.500 282.820 261.797 281.869 C 265.308 280.857, 265.501 280.562, 266.467 274.750 C 266.963 271.766, 266.775 271, 265.545 271 C 264.695 271, 264 271.450, 264 272 M 203 273.500 C 203 274.433, 203.944 275, 205.500 275 C 207.056 275, 208 274.433, 208 273.500 C 208 272.567, 207.056 272, 205.500 272 C 203.944 272, 203 272.567, 203 273.500 M 219.500 272.791 C 216.878 273.347, 214.886 275.007, 215.550 276.081 C 215.840 276.550, 217.410 276.668, 219.039 276.342 C 223.051 275.540, 222.814 277.347, 218.750 278.543 C 216.269 279.274, 215.427 280.135, 215.190 282.183 C 214.854 285.096, 218.025 287.721, 220.233 286.356 C 220.888 285.951, 222.904 285.719, 224.712 285.841 C 227.094 286.002, 228 285.641, 228 284.531 C 228 283.689, 227.575 283, 227.055 283 C 226.535 283, 225.972 280.912, 225.805 278.359 C 225.482 273.439, 223.731 271.893, 219.500 272.791 M 281.877 273.374 C 278.618 274.999, 277.267 280.232, 279.303 283.340 C 282.307 287.924, 289.553 287.057, 291.368 281.895 C 293.363 276.223, 287.221 270.710, 281.877 273.374 M 350 274 C 350 275.646, 350.518 276.065, 352.250 275.820 C 353.488 275.644, 354.500 274.825, 354.500 274 C 354.500 273.175, 353.488 272.356, 352.250 272.180 C 350.518 271.935, 350 272.354, 350 274 M 428.891 273.367 C 423.764 275.923, 424.143 283.963, 429.488 285.995 C 432.590 287.175, 437 285.698, 437 283.479 C 437 282.237, 436.294 282.042, 433.615 282.544 C 431.575 282.927, 429.961 282.746, 429.556 282.090 C 429.112 281.373, 430.250 281, 432.882 281 C 437.430 281, 438.324 280.139, 437.439 276.612 C 436.635 273.409, 432.191 271.722, 428.891 273.367 M 230.655 274.829 C 228.943 276.721, 228.463 281.608, 229.786 283.687 C 230.201 284.341, 231.830 285.365, 233.405 285.964 C 235.676 286.827, 236.761 286.732, 238.635 285.504 C 239.936 284.651, 241 283.541, 241 283.036 C 241 281.388, 238.945 280.800, 237.469 282.026 C 235.356 283.780, 233 282.448, 233 279.500 C 233 276.603, 235.345 275.211, 237.380 276.900 C 238.396 277.743, 239.012 277.690, 239.844 276.689 C 242.698 273.249, 233.728 271.433, 230.655 274.829 M 269 279.583 C 269 285.270, 269.221 286, 270.943 286 C 272.513 286, 272.944 285.186, 273.193 281.750 C 273.430 278.469, 274.013 277.275, 275.750 276.513 C 279.538 274.851, 278.405 273.167, 273.500 273.167 L 269 273.167 269 279.583 M 294.015 278.250 C 294.034 284.506, 294.870 286.111, 298.090 286.069 C 299.415 286.052, 301.738 286.037, 303.250 286.035 C 305.968 286.032, 306 285.957, 306 279.516 C 306 273.728, 305.783 273, 304.055 273 C 302.444 273, 302.057 273.816, 301.805 277.741 C 301.575 281.313, 301.069 282.564, 299.750 282.814 C 298.270 283.095, 298 282.365, 298 278.073 C 298 273.667, 297.737 273, 296 273 C 294.252 273, 294.002 273.662, 294.015 278.250 M 309 279.553 C 309 285.273, 309.219 286, 310.945 286 C 312.556 286, 312.943 285.184, 313.195 281.259 C 313.425 277.687, 313.931 276.436, 315.250 276.186 C 316.730 275.905, 317 276.635, 317 280.927 C 317 285.373, 317.253 286, 319.048 286 C 320.925 286, 321.071 285.479, 320.798 279.750 L 320.500 273.500 314.750 273.303 L 309 273.107 309 279.553 M 362.245 274.250 C 357.358 280.358, 363.029 289.077, 369.731 285.760 C 373.123 284.082, 372.298 282.428, 368.250 282.793 C 366.462 282.955, 365 282.617, 365 282.043 C 365 281.469, 366.589 281, 368.531 281 C 372.613 281, 373.833 279.124, 372.153 275.436 C 371.253 273.461, 370.305 273, 367.144 273 C 364.999 273, 362.795 273.563, 362.245 274.250 M 375 279.622 C 375 285.273, 375.222 286, 376.945 286 C 378.556 286, 378.943 285.184, 379.195 281.259 C 379.425 277.687, 379.931 276.436, 381.250 276.186 C 382.730 275.905, 383 276.635, 383 280.927 C 383 285.333, 383.263 286, 385 286 C 386.737 286, 387 285.333, 387 280.927 C 387 276.635, 387.270 275.905, 388.750 276.186 C 390.069 276.436, 390.575 277.687, 390.805 281.259 C 391.057 285.184, 391.444 286, 393.055 286 C 394.652 286, 395 285.296, 395 282.065 C 395 279.901, 394.577 277.018, 394.061 275.659 C 393.156 273.279, 392.788 273.189, 384.061 273.217 L 375 273.245 375 279.622 M 398.035 274.934 C 396.505 277.794, 396.778 282.635, 398.571 284.429 C 400.962 286.819, 406.572 286.449, 408.443 283.777 C 412.004 278.694, 409.116 273, 402.978 273 C 400.138 273, 398.788 273.528, 398.035 274.934 M 411.234 274.250 C 411.480 274.938, 412.525 277.883, 413.555 280.796 C 415.179 285.387, 415.747 286.052, 417.826 285.796 C 419.760 285.557, 420.676 284.293, 422.566 279.250 L 424.908 273 422.454 273 C 420.797 273, 419.988 273.568, 419.965 274.750 C 419.945 275.712, 419.350 277.543, 418.643 278.818 C 417.381 281.092, 417.334 281.059, 416.138 277.068 C 415.224 274.016, 414.404 273, 412.853 273 C 411.627 273, 410.968 273.509, 411.234 274.250 M 440 279.500 C 440 285.333, 440.205 286, 442 286 C 443.710 286, 444 285.333, 444 281.406 C 444 277.654, 444.366 276.717, 446 276.290 C 449.713 275.319, 448.304 273, 444 273 L 440 273 440 279.500 M 259.543 276.931 C 259.226 277.443, 259.425 278.144, 259.984 278.490 C 261.177 279.227, 263 278.291, 263 276.941 C 263 275.724, 260.293 275.716, 259.543 276.931 M 283.040 277.452 C 281.429 279.394, 282.677 283, 284.960 283 C 287.092 283, 288.298 280.515, 287.455 277.859 C 286.749 275.635, 284.704 275.446, 283.040 277.452 M 328 279.500 C 328 282.702, 328.270 283.101, 330.250 282.820 C 332.012 282.569, 332.500 281.850, 332.500 279.500 C 332.500 277.150, 332.012 276.431, 330.250 276.180 C 328.270 275.899, 328 276.298, 328 279.500 M 365 277 C 365 277.550, 365.900 278, 367 278 C 368.100 278, 369 277.550, 369 277 C 369 276.450, 368.100 276, 367 276 C 365.900 276, 365 276.450, 365 277 M 401.412 277.368 C 400.406 279.989, 401.434 282.500, 403.514 282.500 C 405.052 282.500, 405.500 281.826, 405.500 279.514 C 405.500 276.242, 402.457 274.645, 401.412 277.368 M 429.500 277 C 429.148 277.569, 430.009 278, 431.500 278 C 432.991 278, 433.852 277.569, 433.500 277 C 433.160 276.450, 432.260 276, 431.500 276 C 430.740 276, 429.840 276.450, 429.500 277 M 203.185 280.750 C 203.385 281.805, 204.605 282.626, 206.259 282.816 C 208.465 283.071, 209 282.729, 209 281.066 C 209 279.426, 208.366 279, 205.927 279 C 203.540 279, 202.927 279.391, 203.185 280.750 M 220.250 280.662 C 218.509 281.365, 218.684 283, 220.500 283 C 221.325 283, 222 282.325, 222 281.500 C 222 280.675, 221.887 280.036, 221.750 280.079 C 221.613 280.122, 220.938 280.385, 220.250 280.662 M 258.551 286.783 C 257.644 287.690, 259.091 289, 261 289 C 263.896 289, 264.287 287.288, 261.512 286.758 C 260.156 286.498, 258.824 286.510, 258.551 286.783" stroke="none" fill="#060a0d" fill-rule="evenodd"/></svg>