<?xml version="1.0" encoding="UTF-8"?>
<svg version="1.1" xmlns="http://www.w3.org/2000/svg" width="984" height="344">
<path d="M0 0 C324.72 0 649.44 0 984 0 C984 113.52 984 227.04 984 344 C659.28 344 334.56 344 0 344 C0 230.48 0 116.96 0 0 Z " fill="#191919" transform="translate(0,0)"/>
<path d="M0 0 C1.57297852 -0.03335449 1.57297852 -0.03335449 3.17773438 -0.06738281 C16.06447154 -0.0309796 26.42934103 4.91664422 35.9375 13.4375 C49.81525872 28.11836976 55.99577258 50.81469794 56.4453125 70.51953125 C56.42210937 71.15246094 56.39890625 71.78539063 56.375 72.4375 C55.09625 72.14875 53.8175 71.86 52.5 71.5625 C50.79176261 71.18706321 49.08342378 70.81208773 47.375 70.4375 C46.53582031 70.24671875 45.69664062 70.0559375 44.83203125 69.859375 C36.60281426 68.07318837 29.96578798 67.23469859 22.4921875 71.734375 C18.2997108 75.10692083 15.75367732 79.68014536 13.375 84.4375 C6.04825213 83.78783763 -0.80183832 81.90314426 -7.875 79.9375 C-10.19266591 79.30192862 -12.5103725 78.66650556 -14.828125 78.03125 C-15.84551758 77.74958984 -16.86291016 77.46792969 -17.91113281 77.17773438 C-26.24082646 74.90572726 -33.60889332 74.10675919 -41.5859375 78.109375 C-51.72060417 84.71049888 -53.59230506 96.59914537 -56.27734375 107.55859375 C-56.62167759 108.94528402 -56.96654143 110.33184278 -57.31190491 111.71827698 C-58.2181019 115.36207472 -59.11723899 119.00757798 -60.01483154 122.65350342 C-60.9165315 126.31105088 -61.82469084 129.96699245 -62.73242188 133.62304688 C-64.07513463 139.03354025 -65.41406267 144.44494711 -66.74975586 149.85717773 C-68.25033288 155.93353382 -69.76383155 162.00656054 -71.2855444 168.07765102 C-76.07364473 186.51507081 -76.07364473 186.51507081 -71.8125 204.546875 C-65.74910901 214.20043172 -57.20296411 217.65015673 -46.5859375 220.609375 C-45.13043236 221.02899506 -45.13043236 221.02899506 -43.64552307 221.45709229 C-40.43357459 222.37898444 -37.21708989 223.28372708 -34 224.1875 C-31.71805722 224.83680703 -29.43624036 225.48655678 -27.15454102 226.13671875 C0.06028614 233.85918674 27.3804969 241.22110249 54.72589111 248.46582031 C58.47494198 249.46411241 62.21966085 250.47768952 65.96435547 251.4921875 C68.39147878 252.14108443 70.81872025 252.78953961 73.24609375 253.4375 C74.35155045 253.74059082 75.45700714 254.04368164 76.59596252 254.35595703 C86.40735684 256.95090743 93.30809087 257.41472843 102.375 252.4375 C111.10149816 247.2809329 113.31212841 236.00743165 115.71008301 226.81434631 C116.08819443 225.33592316 116.46607748 223.85744158 116.84375 222.37890625 C117.24963345 220.82420244 117.65651436 219.26975873 118.06433105 217.71556091 C119.13090485 213.64017115 120.18420152 209.56146756 121.23455811 205.48187256 C122.29041654 201.39015698 123.35847777 197.30163286 124.42578125 193.21289062 C125.65832435 188.48924978 126.88864757 183.765091 128.10693359 179.03775024 C129.72567288 172.75825573 131.34563378 166.48216352 133.08203125 160.23388672 C133.32240112 159.36086411 133.562771 158.48784149 133.8104248 157.58836365 C134.22415253 156.09671333 134.64648321 154.60739524 135.08117676 153.12171936 C137.67067926 143.7420234 136.36106774 136.16375639 132.375 127.4375 C131.15278561 125.29036662 129.8691667 123.41193457 128.375 121.4375 C144.04189716 126.21761899 154.99437772 137.88128199 162.62109375 151.8828125 C163.19988281 153.05585938 163.77867187 154.22890625 164.375 155.4375 C164.91459351 156.34145508 164.91459351 156.34145508 165.46508789 157.26367188 C169.59847751 164.89228151 169.03136941 173.2573797 168.9375 181.6875 C168.93357239 182.48885376 168.92964478 183.29020752 168.92559814 184.11584473 C168.83559511 197.12501927 167.56697741 209.05084696 163.375 221.4375 C163.15038086 222.15196289 162.92576172 222.86642578 162.69433594 223.60253906 C157.59060733 239.76063183 148.79658317 253.04969196 137.375 265.4375 C136.52292969 266.37207031 135.67085937 267.30664062 134.79296875 268.26953125 C122.22495471 281.44050849 108.09789432 290.4254816 91.375 297.4375 C90.6840625 297.73382324 89.993125 298.03014648 89.28125 298.33544922 C71.1928486 306.00623858 52.41168777 308.67102465 32.875 308.6875 C32.15680084 308.68817474 31.43860168 308.68884949 30.69863892 308.68954468 C20.25401626 308.67394067 10.53413631 308.1546052 0.375 305.4375 C-1.1593917 305.07874541 -2.69460411 304.72348918 -4.23046875 304.37109375 C-31.03536142 298.01945285 -55.90783346 283.65231834 -75.625 264.4375 C-76.67169391 263.45293244 -77.71858149 262.46857076 -78.765625 261.484375 C-104.30789276 237.11977327 -117.93834398 203.68357231 -118.828125 168.51171875 C-118.99703362 154.53262334 -118.15786724 141.18433543 -115.625 127.4375 C-115.4084375 126.19097656 -115.191875 124.94445312 -114.96875 123.66015625 C-108.84415521 91.83413688 -92.59800633 62.78383243 -71.625 38.4375 C-71.1491748 37.88046387 -70.67334961 37.32342773 -70.18310547 36.74951172 C-58.15717051 22.77550346 -43.30094883 9.61811049 -25.625 3.4375 C-24.779375 3.13972656 -23.93375 2.84195312 -23.0625 2.53515625 C-15.42971833 0.33261154 -7.90545223 0.09516252 0 0 Z " fill="#3B42D3" transform="translate(158.625,17.5625)"/>
<path d="M0 0 C10.71090483 1.97489568 21.29806191 4.20789335 31.8125 7.0625 C33.17979248 7.43012451 33.17979248 7.43012451 34.57470703 7.80517578 C47.75867605 11.46127552 47.75867605 11.46127552 50.875 15.32421875 C52.08798504 18.20926997 52.60972471 20.71062455 53 23.8125 C54.13443233 32.39816011 54.13443233 32.39816011 58.59375 39.5625 C61.91023656 41.54377768 65.42554222 42.44446001 69.125 43.4375 C70.65580717 43.87329502 72.1857639 44.31208874 73.71484375 44.75390625 C74.45202637 44.9667627 75.18920898 45.17961914 75.94873047 45.39892578 C83.76829015 47.69025593 89.5170058 49.87021956 94 57 C95.9656041 62.89681231 94.89474746 68.29112983 93.390625 74.19140625 C93.22254333 74.85857162 93.05446167 75.525737 92.88128662 76.21311951 C92.34523957 78.33162947 91.7976049 80.44695205 91.25 82.5625 C90.89772528 83.95359588 90.54615765 85.34487101 90.1953125 86.73632812 C88.23332872 94.4707798 86.13280384 102.15576504 83.91552734 109.8215332 C82.6239559 114.30552485 81.40523075 118.80802778 80.1875 123.3125 C79.67336097 125.19145658 79.15902975 127.07036057 78.64453125 128.94921875 C77.47291082 133.23759081 76.3311133 137.53301453 75.19921875 141.83203125 C74.59149574 144.0964481 73.98342985 146.36077296 73.375 148.625 C73.09809326 149.69790283 72.82118652 150.77080566 72.53588867 151.8762207 C72.26365479 152.8787085 71.9914209 153.88119629 71.7109375 154.9140625 C71.47681152 155.8004541 71.24268555 156.6868457 71.00146484 157.60009766 C69.37275421 161.50312679 67.02050986 163.51293848 63.25 165.3125 C55.81126589 166.88607837 48.67688832 164.20980209 41.51953125 162.234375 C37.22545755 161.05100705 32.91437471 159.93905333 28.60083008 158.82910156 C20.94639463 156.85724765 13.3165702 154.85011161 5.75 152.5625 C-1.47062863 150.38046622 -8.75450104 148.49136313 -16.0625 146.625 C-27.78195198 143.62438313 -39.39261126 140.33771511 -50.98681641 136.88818359 C-54.14671559 135.95675326 -57.31249866 135.04811035 -60.48046875 134.14453125 C-61.55079346 133.83773437 -62.62111816 133.5309375 -63.72387695 133.21484375 C-65.75129272 132.63428059 -67.77970338 132.05717478 -69.80932617 131.484375 C-88.44454485 126.11789867 -88.44454485 126.11789867 -93 119 C-96.32602803 111.55603251 -94.9245313 104.6639348 -92.953125 97.09375 C-92.74065125 96.25138794 -92.52817749 95.40902588 -92.30926514 94.5411377 C-91.630577 91.85872426 -90.94040253 89.17941934 -90.25 86.5 C-89.80134401 84.73195828 -89.3534211 82.96373036 -88.90625 81.1953125 C-86.95099935 73.48642292 -84.95368909 65.79010686 -82.890625 58.109375 C-80.66959456 49.83609277 -78.64461901 41.51663259 -76.64453125 33.1875 C-71.91110549 13.91110549 -71.91110549 13.91110549 -67.375 9.375 C-62.4542358 6.52613652 -58.7526959 6.38812703 -53.24755859 7.61181641 C-50.04615286 8.46665276 -46.86628965 9.37711903 -43.6875 10.3125 C-42.61048828 10.62123047 -41.53347656 10.92996094 -40.42382812 11.24804688 C-34.63359461 12.91392266 -28.86383662 14.6370869 -23.11376953 16.43676758 C-18.87991045 17.56491645 -15.45449495 17.705691 -11.49609375 15.78515625 C-8.69467518 13.7816378 -7.52592122 12.06212462 -5.875 9.0625 C-4.08686197 5.85834996 -2.26632286 2.88989691 0 0 Z " fill="#37D6C0" transform="translate(189,97)"/>
<path d="M0 0 C10.95742169 6.68402723 18.59573876 18.2565863 21.93359375 30.61328125 C24.07281024 45.30256783 23.26494418 60.21974801 14.34375 72.4296875 C4.8292874 84.05475272 -4.86567721 90.52542568 -19.87988281 92.76074219 C-32.74538315 93.92389206 -42.85859954 90.59080495 -53.01171875 82.76171875 C-64.25128638 72.85031273 -70.07219277 60.76861276 -71.0625 45.88671875 C-71.62449541 29.08055033 -66.02808137 16.73476947 -54.65625 4.4296875 C-51.82926846 1.96463786 -48.97387532 0.16110812 -45.65625 -1.5703125 C-44.84929687 -2.05242187 -44.04234375 -2.53453125 -43.2109375 -3.03125 C-29.56191415 -10.40579694 -13.12794079 -7.02095567 0 0 Z " fill="#111414" transform="translate(218.65625,142.5703125)"/>
<path d="M0 0 C1.09260132 0.006828 1.09260132 0.006828 2.20727539 0.01379395 C8.40331839 0.13781843 14.37878096 0.84629886 20.4921875 1.83203125 C21.85621704 2.04454529 21.85621704 2.04454529 23.24780273 2.26135254 C25.45776148 2.60643157 27.66671948 2.95686751 29.875 3.3125 C29.96826128 11.95402433 30.03904625 20.59533343 30.08224869 29.23723888 C30.10299852 33.25135949 30.13108078 37.26513224 30.17675781 41.27905273 C30.22067179 45.16297568 30.24423149 49.04656705 30.25450897 52.93071938 C30.26181967 54.40209475 30.27609206 55.87345489 30.29792023 57.34468651 C30.45711041 68.53363538 29.73641086 79.64064355 22.75 88.875 C15.9948082 95.76093744 6.46707199 97.37621158 -2.83520508 97.55322266 C-11.29853953 97.59171538 -18.87311073 97.14709284 -26.125 92.3125 C-25.78197965 86.32738629 -25.30192157 81.56132694 -22.125 76.3125 C-20.949375 76.6425 -19.77375 76.9725 -18.5625 77.3125 C-11.79973846 78.77471871 -2.50137611 80.55613921 3.87890625 77.28515625 C7.35338043 73.54102139 8.14702968 68.2018529 8.875 63.3125 C7.6065625 63.85390625 7.6065625 63.85390625 6.3125 64.40625 C-1.99213372 67.80360016 -7.17768019 69.50943221 -16 67.375 C-22.51180362 64.60812692 -28.37069508 59.72441586 -31.61328125 53.41796875 C-32.60271893 50.73029621 -33.42967756 48.08941668 -34.125 45.3125 C-34.31191406 44.66925781 -34.49882813 44.02601563 -34.69140625 43.36328125 C-37.003903 32.4257966 -34.18390854 23.45473371 -28.80859375 13.99609375 C-22.32540967 4.26208232 -11.37469483 -0.08656445 0 0 Z " fill="#F7F7F7" transform="translate(635.125,84.6875)"/>
<path d="M0 0 C3.80590848 1.93974246 6.47918174 4.91297907 9.22265625 8.1328125 C9.84140625 7.4109375 10.46015625 6.6890625 11.09765625 5.9453125 C15.82489379 1.27149007 22.08226912 -2.10099951 28.78515625 -2.4296875 C35.50661587 -2.0133139 42.66804727 1.18780847 47.22265625 6.1328125 C51.16138307 13.43536992 51.77180986 20.09583377 51.61328125 28.265625 C51.60762146 29.38347382 51.60196167 30.50132263 51.59613037 31.65304565 C51.57391845 35.18842211 51.52374936 38.72274754 51.47265625 42.2578125 C51.45257168 44.66925609 51.43432436 47.08071573 51.41796875 49.4921875 C51.37410326 55.37279463 51.30518073 61.25262599 51.22265625 67.1328125 C44.29265625 67.1328125 37.36265625 67.1328125 30.22265625 67.1328125 C30.17367187 64.14734375 30.1246875 61.161875 30.07421875 58.0859375 C30.02020314 55.19330854 29.9628979 52.30076217 29.90527344 49.40820312 C29.86699956 47.39850012 29.83214389 45.38872899 29.80078125 43.37890625 C29.75509634 40.4893357 29.69710738 37.60023354 29.63671875 34.7109375 C29.62516754 33.81288391 29.61361633 32.91483032 29.60171509 31.98956299 C29.5818454 31.14899353 29.56197571 30.30842407 29.54150391 29.44238281 C29.52818024 28.70513977 29.51485657 27.96789673 29.50112915 27.20831299 C29.17903827 24.80772112 28.49994396 23.18463135 27.22265625 21.1328125 C24.2606945 20.03494251 21.36153297 19.89823452 18.22265625 20.1328125 C15.47113739 21.92129976 14.51093192 23.07890803 13.64868164 26.23120117 C13.07557842 30.13454314 12.98802033 33.99297341 12.90625 37.93359375 C12.8854689 38.76996872 12.86468781 39.60634369 12.84327698 40.46806335 C12.77814591 43.12706671 12.71906675 45.78616478 12.66015625 48.4453125 C12.61693633 50.25326481 12.57332095 52.06120772 12.52929688 53.86914062 C12.4217614 58.29026913 12.3224176 62.71147444 12.22265625 67.1328125 C4.96265625 67.1328125 -2.29734375 67.1328125 -9.77734375 67.1328125 C-9.79152344 64.07515625 -9.80570312 61.0175 -9.8203125 57.8671875 C-9.85092854 54.90499833 -9.89001847 51.94303379 -9.92993164 48.98095703 C-9.95312477 46.92276964 -9.96751043 44.86446335 -9.97290039 42.80615234 C-9.9821803 39.84657582 -10.0231496 36.88887285 -10.0703125 33.9296875 C-10.06637985 33.00976013 -10.0624472 32.08983276 -10.05839539 31.14202881 C-10.14948338 25.82923322 -10.14948338 25.82923322 -13.09887695 21.52441406 C-16.82224117 19.58993443 -18.80540755 19.90512313 -22.77734375 21.1328125 C-25.95213514 24.01383955 -27.02704306 26.28920127 -27.32324219 30.46411133 C-27.36429613 32.17232655 -27.38430849 33.88113697 -27.38671875 35.58984375 C-27.403255 36.49280685 -27.41979126 37.39576996 -27.43682861 38.32609558 C-27.48526432 41.19923739 -27.50666963 44.07185007 -27.52734375 46.9453125 C-27.55550715 48.89781301 -27.5854351 50.85028893 -27.6171875 52.80273438 C-27.69433307 57.57966941 -27.73489264 62.35494002 -27.77734375 67.1328125 C-35.03734375 67.1328125 -42.29734375 67.1328125 -49.77734375 67.1328125 C-49.77734375 45.0228125 -49.77734375 22.9128125 -49.77734375 0.1328125 C-42.84734375 0.1328125 -35.91734375 0.1328125 -28.77734375 0.1328125 C-28.44734375 2.7728125 -28.11734375 5.4128125 -27.77734375 8.1328125 C-27.32359375 7.4109375 -26.86984375 6.6890625 -26.40234375 5.9453125 C-18.9812327 -2.00587791 -10.03254175 -3.54494614 0 0 Z " fill="#F6F6F6" transform="translate(470.77734375,86.8671875)"/>
<path d="M0 0 C0.70108887 0.00684814 1.40217773 0.01369629 2.12451172 0.02075195 C7.92251392 0.19988486 12.28187965 1.2920756 17.125 4.4375 C18.176875 5.118125 19.22875 5.79875 20.3125 6.5 C25.70428723 11.33453548 28.73892326 18.50711632 30.125 25.4375 C30.125 31.0475 30.125 36.6575 30.125 42.4375 C16.265 42.7675 2.405 43.0975 -11.875 43.4375 C-7.79185195 49.94046962 -7.79185195 49.94046962 -1.75 53.0625 C5.38987959 53.99378864 11.1256847 53.43726525 17.9609375 51.09375 C20.125 50.4375 20.125 50.4375 23.125 50.4375 C24.765625 52.484375 24.765625 52.484375 26.375 55.1875 C26.91640625 56.06921875 27.4578125 56.9509375 28.015625 57.859375 C29.125 60.4375 29.125 60.4375 29.05859375 62.6015625 C27.79166381 65.09301467 26.40332471 65.78208851 23.9375 67.0625 C23.18082031 67.46726562 22.42414062 67.87203125 21.64453125 68.2890625 C12.28287398 72.55623651 0.18954922 73.25625933 -9.8125 70.4375 C-18.40987182 66.79167171 -25.22106384 61.56542851 -28.97265625 52.9296875 C-29.27042969 52.10726562 -29.56820312 51.28484375 -29.875 50.4375 C-30.23722656 49.51710937 -30.59945312 48.59671875 -30.97265625 47.6484375 C-32.05422079 43.79975328 -32.25886762 40.15531859 -32.25 36.1875 C-32.24758301 35.06251099 -32.24758301 35.06251099 -32.24511719 33.91479492 C-32.10972009 27.76418262 -30.90946633 22.84033029 -27.875 17.4375 C-27.318125 16.40625 -26.76125 15.375 -26.1875 14.3125 C-19.17333078 5.59218151 -11.57589459 -0.17429376 0 0 Z " fill="#F9F9F9" transform="translate(707.875,84.5625)"/>
<path d="M0 0 C5.13812767 3.90497703 7.5105688 8.93264871 8.51171875 15.20703125 C8.56972656 16.39683594 8.62773438 17.58664063 8.6875 18.8125 C8.72093506 19.49175537 8.75437012 20.17101074 8.78881836 20.87084961 C9.35391892 34.89268257 9.07211043 48.97051489 9 63 C2.07 63 -4.86 63 -12 63 C-12.33 61.35 -12.66 59.7 -13 58 C-13.67546875 58.34933594 -14.3509375 58.69867188 -15.046875 59.05859375 C-15.93890625 59.51363281 -16.8309375 59.96867187 -17.75 60.4375 C-18.63171875 60.88996094 -19.5134375 61.34242188 -20.421875 61.80859375 C-25.4742421 64.14339976 -30.48260396 64.80631896 -36 64 C-41.92173044 61.49185055 -46.28245964 57.57769237 -49.08203125 51.74609375 C-51.10097362 45.70644913 -50.7953872 38.68443181 -49 32.625 C-43.83362429 25.84413188 -38.3072409 21.93885335 -30 20 C-29.2265625 19.81308594 -28.453125 19.62617187 -27.65625 19.43359375 C-24.46366238 18.91245077 -21.42084053 18.90483999 -18.1875 18.9375 C-17.02605469 18.94652344 -15.86460937 18.95554687 -14.66796875 18.96484375 C-13.78753906 18.97644531 -12.90710938 18.98804687 -12 19 C-14.58110689 14.41455183 -14.58110689 14.41455183 -19 12 C-26.96342942 11.36971335 -33.49245481 12.35027817 -41 15 C-42.65 10.71 -44.3 6.42 -46 2 C-34.73443513 -9.26556487 -12.85728739 -6.96596317 0 0 Z " fill="#F6F6F6" transform="translate(582,91)"/>
<path d="M0 0 C10.95742169 6.68402723 18.59573876 18.2565863 21.93359375 30.61328125 C24.07281024 45.30256783 23.26494418 60.21974801 14.34375 72.4296875 C4.8292874 84.05475272 -4.86567721 90.52542568 -19.87988281 92.76074219 C-32.74538315 93.92389206 -42.85859954 90.59080495 -53.01171875 82.76171875 C-64.25128638 72.85031273 -70.07219277 60.76861276 -71.0625 45.88671875 C-71.62449541 29.08055033 -66.02808137 16.73476947 -54.65625 4.4296875 C-51.82926846 1.96463786 -48.97387532 0.16110812 -45.65625 -1.5703125 C-44.84929687 -2.05242187 -44.04234375 -2.53453125 -43.2109375 -3.03125 C-29.56191415 -10.40579694 -13.12794079 -7.02095567 0 0 Z M-43.65625 9.4296875 C-44.50703125 10.09613281 -45.3578125 10.76257813 -46.234375 11.44921875 C-54.28959928 18.17368229 -59.65913888 25.81399228 -60.89404297 36.484375 C-61.69594689 49.38533477 -59.82083644 60.28303955 -51.453125 70.61328125 C-43.7837982 78.3659703 -35.49651105 81.8410227 -24.59375 81.9921875 C-13.63310933 82.04013955 -5.1041947 78.00017474 2.96875 70.4921875 C6.27435905 66.84047836 8.58115797 63.01940734 10.34375 58.4296875 C10.69824219 57.54796875 11.05273438 56.66625 11.41796875 55.7578125 C14.26070719 45.53834773 13.54713699 33.40825866 8.8203125 23.94140625 C3.44409098 14.79614054 -3.33295399 7.97319215 -13.80859375 4.90625 C-24.11587512 3.18130031 -35.25619896 2.44592414 -43.65625 9.4296875 Z " fill="#121715" transform="translate(218.65625,142.5703125)"/>
<path d="M0 0 C7.92 0 15.84 0 24 0 C24 30.03 24 60.06 24 91 C16.08 91 8.16 91 0 91 C0 60.97 0 30.94 0 0 Z " fill="#EDEDED" transform="translate(383,63)"/>
<path d="M0 0 C1.18577637 0.01981934 1.18577637 0.01981934 2.39550781 0.04003906 C12.23406914 0.34457563 19.08546518 3.08259453 26.5625 9.625 C34.38455328 18.42480994 38.64786633 26.97961623 38.5 38.8125 C38.49387695 39.64740967 38.48775391 40.48231934 38.48144531 41.3425293 C38.32018926 47.70656147 37.29966596 52.87679332 34.0625 58.4375 C33.505625 59.46875 32.94875 60.5 32.375 61.5625 C26.19732173 69.24285677 18.19801232 76.42303767 8.05761719 77.6875 C-3.86738809 78.55045832 -13.49168106 77.24036261 -22.8671875 69.44921875 C-26.26740344 66.14523534 -28.67125607 62.58424421 -30.9375 58.4375 C-31.35128906 57.72335938 -31.76507813 57.00921875 -32.19140625 56.2734375 C-36.72257552 47.0847946 -36.32965777 34.67828948 -33.875 24.875 C-30.07481629 14.53992093 -20.90642993 5.96949109 -11.1340332 1.24682617 C-7.42961599 -0.11808914 -3.90879421 -0.11501356 0 0 Z M-18.75 19.6875 C-24.31676872 27.5327601 -27.54650053 34.67036397 -25.9375 44.4375 C-23.45957562 53.27478499 -20.32104541 59.34932367 -12.40234375 64.203125 C-4.69778153 68.06151115 1.87938248 68.46895482 10.25 66.3125 C17.63354938 63.78198777 21.59669636 59.76817549 25.5 53.0625 C29.28889365 44.87360082 29.68422894 36.11725388 27.20703125 27.44140625 C23.94944693 20.1368571 18.61497452 15.6400342 11.9375 11.5 C0.23502754 7.23235523 -11.02035095 10.37604513 -18.75 19.6875 Z " fill="#38D4C0" transform="translate(192.9375,146.5625)"/>
<path d="M0 0 C18 0 18 0 23 3 C25.66301861 6.99452792 25.84758428 10.30125605 25 15 C22.5 18.0625 22.5 18.0625 20 20 C20.969375 20.61875 21.93875 21.2375 22.9375 21.875 C26 24 26 24 27 26 C27.11838104 30.85362247 27.02674487 34.79724173 23.8125 38.5625 C16.40395557 42.34908938 8.13852331 41 0 41 C0 27.47 0 13.94 0 0 Z " fill="#F0F0F0" transform="translate(385,200)"/>
<path d="M0 0 C5.14767816 2.24128996 8.9150469 5.27553821 12 10 C12.8988117 15.65061766 13.4457147 22.66566262 10.25 27.6875 C5.56579884 32.50181786 1.99505617 34.15761136 -4.75 34.5 C-9.35309518 34.47213623 -11.792457 34.05364414 -15.125 30.8125 C-19.22922487 25.80953976 -20.44080837 21.6971024 -20.23828125 15.26953125 C-19.65435583 9.70788094 -17.55602682 6.12720016 -13.375 2.5625 C-8.95853536 -0.44651986 -5.21854173 -1.22039196 0 0 Z " fill="#3B43D1" transform="translate(198,168)"/>
<path d="M0 0 C19 0 19 0 25 4 C27.83308697 8.24963046 27.6499106 12.00961503 27 17 C25.94092922 19.54276899 24.87175545 20.90803802 23 23 C22.34 23 21.68 23 21 23 C21.5053125 23.96421875 22.010625 24.9284375 22.53125 25.921875 C23.1879239 27.19769857 23.84415055 28.47375242 24.5 29.75 C24.83386719 30.38421875 25.16773438 31.0184375 25.51171875 31.671875 C27.27175533 35.12010993 28 37.04840069 28 41 C25.69 41 23.38 41 21 41 C20.56429687 39.92878906 20.12859375 38.85757813 19.6796875 37.75390625 C19.07934946 36.35624425 18.47771908 34.95913686 17.875 33.5625 C17.59140625 32.85544922 17.3078125 32.14839844 17.015625 31.41992188 C16.04678572 29.08560738 16.04678572 29.08560738 14 26 C12.02 25.67 10.04 25.34 8 25 C8 30.61 8 36.22 8 42 C5.36 42 2.72 42 0 42 C0 28.14 0 14.28 0 0 Z " fill="#E6E6E6" transform="translate(706,200)"/>
<path d="M0 0 C2.5 1.25 2.5 1.25 3.14355469 2.91821289 C3.88902116 7.79489119 3.72581975 12.74404051 3.74023438 17.66723633 C3.74995246 19.67766511 3.78101006 21.68707583 3.8125 23.69726562 C3.81765625 24.97150391 3.8228125 26.24574219 3.828125 27.55859375 C3.84214355 29.30354126 3.84214355 29.30354126 3.85644531 31.08374023 C3.45950446 34.6097169 2.62593535 36.43565765 0.5 39.25 C-3.29163027 41.77775351 -6.30874031 41.47443035 -10.6875 41.375 C-11.43708984 41.36597656 -12.18667969 41.35695312 -12.95898438 41.34765625 C-14.80612654 41.32412578 -16.65310412 41.28825561 -18.5 41.25 C-19.16 39.93 -19.82 38.61 -20.5 37.25 C-19.84 36.26 -19.18 35.27 -18.5 34.25 C-15.75 34.02734375 -15.75 34.02734375 -12.5 34.1875 C-9.33389738 34.37902249 -9.33389738 34.37902249 -6.5 34.25 C-5.84 33.59 -5.18 32.93 -4.5 32.25 C-4.5 31.26 -4.5 30.27 -4.5 29.25 C-5.60408203 29.31960937 -5.60408203 29.31960937 -6.73046875 29.390625 C-14.73573201 29.68672457 -14.73573201 29.68672457 -18.5625 27.5 C-22.77921277 22.60317226 -22.93572328 18.49465876 -22.8125 12.1640625 C-22.23665826 6.79433825 -19.71504852 4.32376381 -15.8125 0.875 C-10.41439233 -1.77312829 -5.76864314 -1.23613782 0 0 Z " fill="#F0F0F0" transform="translate(529.5,211.75)"/>
<path d="M0 0 C2.31 0 4.62 0 7 0 C7 13.86 7 27.72 7 42 C4.69 42 2.38 42 0 42 C0 41.01 0 40.02 0 39 C-0.845625 39.495 -1.69125 39.99 -2.5625 40.5 C-6.48239867 42.21050124 -8.7710994 42.61511282 -13 42 C-17.27847478 38.57722018 -19.70239138 35.42472705 -20.37109375 29.9765625 C-20.57248203 19.81237771 -20.57248203 19.81237771 -17.75 16.3125 C-11.83899885 11.3418854 -7.58450681 11.8194165 0 12 C0 8.04 0 4.08 0 0 Z " fill="#F3F3F3" transform="translate(681,200)"/>
<path d="M0 0 C2.31 0 4.62 0 7 0 C7 1.32 7 2.64 7 4 C7.66 4 8.32 4 9 4 C9.33 3.01 9.66 2.02 10 1 C13.10953379 -0.5547669 15.56266761 -0.28644437 19 0 C22.4375 2 22.4375 2 25 4 C25.680625 3.34 26.36125 2.68 27.0625 2 C30.74874118 -0.50978123 32.61738151 -0.62608836 37 0 C39.75329021 1.79562405 41.52627461 3.05254922 43 6 C44.28986003 14.31243129 44.09262065 22.61268549 44 31 C41.36 31 38.72 31 36 31 C36 23.74 36 16.48 36 9 C33.36 9 30.72 9 28 9 C26.41596476 10.58403524 26.78025065 12.2771638 26.68359375 14.47265625 C26.64169922 15.37177734 26.59980469 16.27089844 26.55664062 17.19726562 C26.51732422 18.14279297 26.47800781 19.08832031 26.4375 20.0625 C26.39431641 21.01189453 26.35113281 21.96128906 26.30664062 22.93945312 C26.20020724 25.29281353 26.09818992 27.64628354 26 30 C23.36 30 20.72 30 18 30 C18 23.07 18 16.14 18 9 C15.36 9 12.72 9 10 9 C7.94872156 12.07691766 7.72739128 12.93644999 7.5859375 16.44921875 C7.54726563 17.29677734 7.50859375 18.14433594 7.46875 19.01757812 C7.42234375 20.33918945 7.42234375 20.33918945 7.375 21.6875 C7.33632813 22.58017578 7.29765625 23.47285156 7.2578125 24.39257812 C7.16359782 26.5948462 7.07798412 28.79710722 7 31 C4.69 31 2.38 31 0 31 C0 20.77 0 10.54 0 0 Z " fill="#E8E8E8" transform="translate(771,211)"/>
<path d="M0 0 C4.54236953 2.13264669 8.43907196 4.58994264 11 9 C11.77663913 14.41548369 12.30763402 20.83913805 9.25 25.625 C4.40100883 30.74337957 4.40100883 30.74337957 0.6328125 31.43359375 C-5.09595545 31.44251706 -8.52149911 30.93234225 -13 27 C-16.77701496 22.70201746 -17.30595572 18.82610722 -17.20703125 13.27734375 C-16.8323586 9.15594463 -15.44124815 6.40773076 -12.48828125 3.5234375 C-8.39538598 0.23072625 -5.34020524 -0.93687811 0 0 Z " fill="#ECECEC" transform="translate(578,211)"/>
<path d="M0 0 C3.50427723 2.04416172 6.42247786 4.65745573 8.25 8.3125 C8.93982266 13.40778102 9.41871344 18.27900128 6.79296875 22.84765625 C4.09368059 25.97883052 2.21543701 27.99068766 -1.75 29.3125 C-6.54629374 29.58398832 -10.47082329 29.58865782 -14.75 27.3125 C-18.20867783 23.55306757 -21.076315 19.46138352 -21.4375 14.25 C-20.42544102 8.4536622 -17.82090743 4.67925135 -14 0.3125 C-9.52987504 -1.6742222 -4.65845869 -1.16461467 0 0 Z " fill="#EEEEEE" transform="translate(840.75,212.6875)"/>
<path d="M0 0 C2.62961589 1.79583524 3.92483805 3.0451936 5.5625 5.75 C5.90307617 8.40722656 5.90307617 8.40722656 5.85546875 11.390625 C5.84580078 12.46054688 5.83613281 13.53046875 5.82617188 14.6328125 C5.80103516 15.74398437 5.77589844 16.85515625 5.75 18 C5.72969727 19.68996094 5.72969727 19.68996094 5.70898438 21.4140625 C5.67365645 24.19319264 5.6243252 26.97135363 5.5625 29.75 C2.1875 29.875 2.1875 29.875 -1.4375 29.75 C-2.0975 29.09 -2.7575 28.43 -3.4375 27.75 C-3.9325 28.08 -4.4275 28.41 -4.9375 28.75 C-8.46211484 30.15984593 -11.69172662 30.39608822 -15.4375 29.75 C-18.98918133 27.01793744 -20.25902057 24.91011632 -20.9375 20.5 C-20.33428225 15.97586687 -19.25016363 14.5731722 -15.7265625 11.83984375 C-11.46757819 9.81210207 -7.0339481 10.30116058 -2.4375 10.75 C-2.7675 9.76 -3.0975 8.77 -3.4375 7.75 C-4.35273438 7.78480469 -5.26796875 7.81960937 -6.2109375 7.85546875 C-7.39945312 7.88253906 -8.58796875 7.90960938 -9.8125 7.9375 C-11.58753906 7.98970703 -11.58753906 7.98970703 -13.3984375 8.04296875 C-14.90277344 7.89794922 -14.90277344 7.89794922 -16.4375 7.75 C-18.4375 4.75 -18.4375 4.75 -18.4375 1.75 C-13.30096681 -2.87287987 -6.10934087 -2.2215785 0 0 Z " fill="#E9E9E9" transform="translate(437.4375,212.25)"/>
<path d="M0 0 C3.47647572 2.31765048 5.61500962 4.8951055 6.8125 8.875 C6.8125 11.515 6.8125 14.155 6.8125 16.875 C0.2125 16.875 -6.3875 16.875 -13.1875 16.875 C-9.00314775 22.05139816 -9.00314775 22.05139816 -5.25 22.3125 C-2.03626991 21.8533957 0.78253631 21.02927188 3.8125 19.875 C4.1425 22.185 4.4725 24.495 4.8125 26.875 C0.33710552 29.85859632 -3.93866071 29.35883155 -9.1875 28.875 C-13.12717055 27.84048219 -16.69320929 26.20072095 -19.1875 22.875 C-21.08000004 17.19749989 -20.97641694 11.0445216 -18.9375 5.4375 C-13.60269352 -2.37418092 -8.87706252 -3.13308089 0 0 Z " fill="#EAEAEA" transform="translate(759.1875,213.125)"/>
<path d="M0 0 C3.86100249 2.46446968 4.91029206 3.82058413 7 8 C7 10.97 7 13.94 7 17 C0.73 17 -5.54 17 -12 17 C-8.82409005 22.14628094 -8.82409005 22.14628094 -5.78125 22.3046875 C-5.0284375 22.16289062 -4.275625 22.02109375 -3.5 21.875 C-2.7471875 21.74867188 -1.994375 21.62234375 -1.21875 21.4921875 C0.86459733 21.03003651 2.9342699 20.53521189 5 20 C5.66 21.65 6.32 23.3 7 25 C2.35873675 29.01406552 -1.270567 29.62724668 -7.375 29.38671875 C-11.11606508 28.8355797 -13.24030505 27.55271782 -16 25 C-19.73119414 19.59620158 -20.77035472 15.51499994 -20 9 C-15.69966594 0.05530516 -9.33607512 -3.90608772 0 0 Z " fill="#EDEDED" transform="translate(903,213)"/>
<path d="M0 0 C0.05437005 2.85442753 0.09384974 5.70780076 0.125 8.5625 C0.15013672 9.76229492 0.15013672 9.76229492 0.17578125 10.98632812 C0.22506653 17.02377514 -0.22217541 22.22659364 -3.5625 27.4375 C-7.2729304 29.81598102 -10.72368236 29.89344494 -15 29 C-18.36213752 26.42474573 -20.40220714 23.8893642 -22 20 C-22.54777856 15.22650108 -22.63640698 10.6263734 -20.875 6.125 C-14.27576358 -1.35413461 -9.61143358 -2.48775394 0 0 Z " fill="#1D1D1D" transform="translate(644,105)"/>
<path d="M0 0 C2.31 0 4.62 0 7 0 C7 7.26 7 14.52 7 22 C7.66 22 8.32 22 9 22 C9.226875 21.278125 9.45375 20.55625 9.6875 19.8125 C11.3331604 16.28608486 12.9271686 14.40482458 16 12 C18.73313517 11.30530702 21.15892999 11.14446119 24 11 C22.31299807 14.76077992 20.01806351 17.22064316 17.14453125 20.12109375 C15.77791759 21.97151653 15.77791759 21.97151653 16.10546875 24.37109375 C17.16774711 27.49298605 18.66132137 29.88958876 20.5 32.625 C22.40524764 35.47506306 23.91435164 37.74305493 25 41 C19.97927461 41.96891192 19.97927461 41.96891192 17 41 C14.11947059 37.62412722 12.0410037 33.92893212 10 30 C9.34 30.33 8.68 30.66 8 31 C7.53248212 33.35599235 7.53248212 33.35599235 7.375 36.0625 C7.26285156 37.44115234 7.26285156 37.44115234 7.1484375 38.84765625 C7.09945313 39.55792969 7.05046875 40.26820313 7 41 C4.69 41 2.38 41 0 41 C0 27.47 0 13.94 0 0 Z " fill="#F6F6F6" transform="translate(479,200)"/>
<path d="M0 0 C2.31 0 4.62 0 7 0 C7.02505615 0.63091553 7.0501123 1.26183105 7.07592773 1.91186523 C7.19154137 4.75396825 7.31442316 7.59571083 7.4375 10.4375 C7.47681641 11.43072266 7.51613281 12.42394531 7.55664062 13.44726562 C7.59853516 14.39150391 7.64042969 15.33574219 7.68359375 16.30859375 C7.72025146 17.18314209 7.75690918 18.05769043 7.79467773 18.95874023 C7.78181066 20.9927402 7.78181066 20.9927402 9 22 C11.97 22 14.94 22 18 22 C18.33 14.74 18.66 7.48 19 0 C21.64 0 24.28 0 27 0 C27 9.9 27 19.8 27 30 C24.36 30 21.72 30 19 30 C19 29.01 19 28.02 19 27 C18.44441406 27.48726562 17.88882813 27.97453125 17.31640625 28.4765625 C14.60827076 30.25762968 13.14562346 30.40403279 9.9375 30.375 C9.08027344 30.38273437 8.22304688 30.39046875 7.33984375 30.3984375 C4.48309371 29.91197923 3.70471113 29.31678842 2 27 C0.32016447 23.41995353 -0.24142379 20.64173411 -0.1953125 16.69921875 C-0.18886719 15.72275391 -0.18242188 14.74628906 -0.17578125 13.74023438 C-0.15902344 12.73283203 -0.14226563 11.72542969 -0.125 10.6875 C-0.11597656 9.66076172 -0.10695313 8.63402344 -0.09765625 7.57617188 C-0.07416201 5.05054101 -0.04131131 2.5253919 0 0 Z " fill="#E8E8E8" transform="translate(595,212)"/>
<path d="M0 0 C1.98 0 3.96 0 6 0 C6.33 0.99 6.66 1.98 7 3 C7.680625 2.505 8.36125 2.01 9.0625 1.5 C12.72431906 -0.36986505 14.93214595 -0.50848176 19 0 C22.52761909 2.19496299 24.46525558 4.17041466 26 8 C26.22705078 10.47363281 26.22705078 10.47363281 26.1953125 13.203125 C26.18886719 14.1828125 26.18242188 15.1625 26.17578125 16.171875 C26.15902344 17.18765625 26.14226563 18.2034375 26.125 19.25 C26.11597656 20.28125 26.10695313 21.3125 26.09765625 22.375 C26.07412011 24.91690287 26.04124023 27.4583328 26 30 C23.69 30 21.38 30 19 30 C18.505 20.1 18.505 20.1 18 10 C15.01787087 8.50893543 12.28390342 8.88058533 9 9 C7.41596476 10.58403524 7.78025065 12.2771638 7.68359375 14.47265625 C7.64169922 15.37177734 7.59980469 16.27089844 7.55664062 17.19726562 C7.49766602 18.61555664 7.49766602 18.61555664 7.4375 20.0625 C7.37272461 21.4865918 7.37272461 21.4865918 7.30664062 22.93945312 C7.20020724 25.29281353 7.09818992 27.64628354 7 30 C4.69 30 2.38 30 0 30 C0 20.1 0 10.2 0 0 Z " fill="#F0F0F0" transform="translate(629,211)"/>
<path d="M0 0 C2.78919056 1.13724466 5.39801226 2.48611623 8 4 C7.6875 6.375 7.6875 6.375 7 9 C6.01 9.66 5.02 10.32 4 11 C3.34 10.34 2.68 9.68 2 9 C-0.13818461 8.64390808 -0.13818461 8.64390808 -2.5 8.6875 C-3.2940625 8.67074219 -4.088125 8.65398437 -4.90625 8.63671875 C-5.5971875 8.75660156 -6.288125 8.87648437 -7 9 C-9.36574234 12.5486135 -9.10865265 13.5764525 -8.625 17.6875 C-8.51414062 18.68136719 -8.40328125 19.67523438 -8.2890625 20.69921875 C-8.19367188 21.45847656 -8.09828125 22.21773437 -8 23 C-1.99441667 23.1521881 -1.99441667 23.1521881 3.9375 22.375 C4.618125 22.25125 5.29875 22.1275 6 22 C8 24 8 24 8.125 26.625 C8.08375 27.40875 8.0425 28.1925 8 29 C3.21407 31.80864437 -1.59732963 31.64205648 -7 31 C-12.14853681 28.4257316 -15.182008 25.45397599 -17 20 C-17.51853818 15.0611364 -17.55199525 11.14645166 -15.375 6.625 C-10.72111642 1.48123393 -7.06095985 -0.9739255 0 0 Z " fill="#EBEBEB" transform="translate(465,211)"/>
<path d="M0 0 C3.75 1.25 3.75 1.25 5.25390625 3.55859375 C6.55525876 6.42156927 7.69658222 9.28726249 8.75 12.25 C9.183125 13.466875 9.61625 14.68375 10.0625 15.9375 C10.289375 16.700625 10.51625 17.46375 10.75 18.25 C11.07613281 17.52554688 11.40226563 16.80109375 11.73828125 16.0546875 C18.16605839 1.83394161 18.16605839 1.83394161 19.75 0.25 C22.08297433 0.20907063 24.41705225 0.20758277 26.75 0.25 C24.95656316 6.26569956 22.2963131 11.86886689 19.6875 17.5625 C19.22794922 18.57634766 18.76839844 19.59019531 18.29492188 20.63476562 C14.88127309 28.11872691 14.88127309 28.11872691 13.75 29.25 C11.75041636 29.29080783 9.74954746 29.29254356 7.75 29.25 C3.43527457 20.04392685 -0.42012594 10.6646472 -4.25 1.25 C-3.25 0.25 -3.25 0.25 0 0 Z " fill="#ECECEC" transform="translate(855.25,211.75)"/>
<path d="M0 0 C2.5 0.125 2.5 0.125 3.5 1.125 C3.54080783 3.12458364 3.54254356 5.12545254 3.5 7.125 C2.55125 7.393125 1.6025 7.66125 0.625 7.9375 C-2.75267273 8.87486588 -2.75267273 8.87486588 -4.5 12.125 C-4.86433373 14.24837771 -4.86433373 14.24837771 -4.9140625 16.57421875 C-4.97207031 17.84555664 -4.97207031 17.84555664 -5.03125 19.14257812 C-5.07765625 20.46418945 -5.07765625 20.46418945 -5.125 21.8125 C-5.18300781 23.15151367 -5.18300781 23.15151367 -5.2421875 24.51757812 C-5.33640218 26.7198462 -5.42201588 28.92210722 -5.5 31.125 C-8.14 31.125 -10.78 31.125 -13.5 31.125 C-13.5 21.225 -13.5 11.325 -13.5 1.125 C-10.16666667 1.125 -6.83333333 1.125 -3.5 1.125 C-2.5 0.125 -2.5 0.125 0 0 Z " fill="#E3E3E3" transform="translate(929.5,210.875)"/>
<path d="M0 0 C1.11375 0.3403125 1.11375 0.3403125 2.25 0.6875 C2.25 2.6675 2.25 4.6475 2.25 6.6875 C1.13625 7.038125 0.0225 7.38875 -1.125 7.75 C-4.11260012 9.07514521 -4.6193592 9.42028018 -6.125 12.5 C-7.3094471 18.44798436 -7.43150171 24.64441398 -7.75 30.6875 C-10.06 30.6875 -12.37 30.6875 -14.75 30.6875 C-14.75 20.7875 -14.75 10.8875 -14.75 0.6875 C-12.44 0.6875 -10.13 0.6875 -7.75 0.6875 C-7.42 1.3475 -7.09 2.0075 -6.75 2.6875 C-6.193125 2.171875 -5.63625 1.65625 -5.0625 1.125 C-2.75 -0.3125 -2.75 -0.3125 0 0 Z " fill="#F1F1F0" transform="translate(554.75,211.3125)"/>
<path d="M0 0 C6.61263094 0.44508093 17.23942808 2.23942808 22 7 C22.55692633 12.23510751 22.55692633 12.23510751 20.765625 14.6953125 C17.8242904 16.86877656 15.2579401 16.04488113 11.78125 15.58984375 C7.38123799 14.65669514 1.27775731 13.27775731 -2 10 C-2.27314815 4.26388889 -2.27314815 4.26388889 -2 2 C-1.34 1.34 -0.68 0.68 0 0 Z " fill="#131A17" transform="translate(129,115)"/>
<path d="M0 0 C3.38677089 2.45000447 4.78698584 3.86392446 5.5625 8 C4.84202557 11.8425303 3.99097304 13.45767292 1 16 C-2.99893269 16.94237143 -5.98105682 16.61136591 -9.5 14.5 C-11.61897146 10.9683809 -11.79841448 8.01676563 -11 4 C-8.16650967 -0.53358453 -5.10426635 -0.80593679 0 0 Z " fill="#1E1E1E" transform="translate(838,219)"/>
<path d="M0 0 C3.81698975 1.15872903 5.35191071 1.7114807 7.5 5.0625 C8.30565355 9.10737917 8.13769736 12.04218422 5.9375 15.5625 C2.55111671 17.64642818 0.40614682 17.62052097 -3.5 17.0625 C-5.9375 15.5625 -5.9375 15.5625 -7.5 13.0625 C-8.09434688 8.38201832 -8.07487433 6.18925368 -5.9375 2 C-3.5 0.0625 -3.5 0.0625 0 0 Z " fill="#1E1D1E" transform="translate(575.5,217.9375)"/>
<path d="M0 0 C3.75531015 0.76462801 5.27259905 2.3588869 7.37890625 5.484375 C7.70890625 7.464375 8.03890625 9.444375 8.37890625 11.484375 C0.78890625 11.484375 -6.80109375 11.484375 -14.62109375 11.484375 C-11.77852359 2.95666453 -9.0683629 -0.48652916 0 0 Z " fill="#1E1E1E" transform="translate(710.62109375,101.515625)"/>
<path d="M0 0 C0.10832169 2.08218362 0.18573541 4.16599129 0.25 6.25 C0.29640625 7.41015625 0.3428125 8.5703125 0.390625 9.765625 C0 13 0 13 -1.82421875 15.390625 C-4 17 -4 17 -7.0625 17.5 C-10 17 -10 17 -11.875 15.5625 C-13.57285932 11.69515376 -13.65515207 8.15183582 -13 4 C-10.0569781 -1.24625643 -5.35967538 -0.41228272 0 0 Z " fill="#222121" transform="translate(681,218)"/>
<path d="M0 0 C1.17046875 0.03609375 2.3409375 0.0721875 3.546875 0.109375 C4.43890625 0.15578125 5.3309375 0.2021875 6.25 0.25 C6.57470459 4.38998349 6.6804413 6.58999001 4.375 10.125 C1.43667958 13.06332042 -0.20155079 13.42113411 -4.25 13.5 C-5.44109375 13.53867188 -5.44109375 13.53867188 -6.65625 13.578125 C-7.3471875 13.46984375 -8.038125 13.3615625 -8.75 13.25 C-11.07749345 9.75875983 -11.25299316 8.35777749 -10.75 4.25 C-7.598495 -0.03143484 -5.15869682 -0.20634787 0 0 Z " fill="#1A1A1A" transform="translate(563.75,124.75)"/>
<path d="M0 0 C0.10794277 2.26979665 0.18556176 4.54105196 0.25 6.8125 C0.29640625 8.07707031 0.3428125 9.34164062 0.390625 10.64453125 C0 14 0 14 -1.85546875 15.921875 C-4.5256436 17.26425798 -6.0524711 17.52904365 -9 17 C-11.92364244 14.58043385 -12.01849233 12.85437291 -12.5 9.0625 C-12.35672652 5.72983437 -11.94083006 4.91393463 -9.9375 2 C-6.33448866 -0.45311411 -4.26611972 -0.16079603 0 0 Z " fill="#232323" transform="translate(526,218)"/>
<path d="M0 0 C1.588125 -0.061875 3.17625 -0.12375 4.8125 -0.1875 C6.15248047 -0.23970703 6.15248047 -0.23970703 7.51953125 -0.29296875 C10 0 10 0 11.80078125 1.35546875 C13.50731102 3.69569361 13.42408618 5.1727588 13 8 C11.80078125 9.64453125 11.80078125 9.64453125 10 11 C7.51953125 11.29296875 7.51953125 11.29296875 4.8125 11.1875 C3.224375 11.125625 1.63625 11.06375 0 11 C0 7.37 0 3.74 0 0 Z " fill="#212121" transform="translate(391,224)"/>
<path d="M0 0 C1.60875 -0.061875 3.2175 -0.12375 4.875 -0.1875 C5.77992188 -0.22230469 6.68484375 -0.25710937 7.6171875 -0.29296875 C8.79667969 -0.14794922 8.79667969 -0.14794922 10 0 C12 3 12 3 11.6875 6.125 C11 9 11 9 10 10 C6.66381769 10.14257189 3.34024394 10.04228157 0 10 C0 6.7 0 3.4 0 0 Z " fill="#1C1C1C" transform="translate(714,207)"/>
<path d="M0 0 C1.60875 -0.04125 3.2175 -0.0825 4.875 -0.125 C5.77992188 -0.14820313 6.68484375 -0.17140625 7.6171875 -0.1953125 C10 0 10 0 12 2 C11.54545455 7.45454545 11.54545455 7.45454545 9 10 C5.98173347 10.27240673 3.03629378 10.08675125 0 10 C0 6.7 0 3.4 0 0 Z " fill="#2D2D2D" transform="translate(391,207)"/>
<path d="M0 0 C1.21816406 0.03480469 1.21816406 0.03480469 2.4609375 0.0703125 C3.68683594 0.09738281 3.68683594 0.09738281 4.9375 0.125 C5.87722656 0.15980469 5.87722656 0.15980469 6.8359375 0.1953125 C6.0859375 5.9453125 6.0859375 5.9453125 3.8359375 8.1953125 C-1.49739583 8.52864583 -1.49739583 8.52864583 -4.1640625 7.1953125 C-4.2890625 4.8203125 -4.2890625 4.8203125 -4.1640625 2.1953125 C-2.1640625 0.1953125 -2.1640625 0.1953125 0 0 Z " fill="#292828" transform="translate(428.1640625,227.8046875)"/>
<path d="M0 0 C3.0625 0.3125 3.0625 0.3125 4.9375 1.6875 C6.0625 3.3125 6.0625 3.3125 6.0625 5.3125 C2.0811217 6.6396261 -1.78795227 6.38165913 -5.9375 6.3125 C-5.12541707 2.25208537 -4.43312263 0.47160879 0 0 Z " fill="#282828" transform="translate(896.9375,217.6875)"/>
<path d="M0 0 C1.0725 0.2475 2.145 0.495 3.25 0.75 C3.58 2.4 3.91 4.05 4.25 5.75 C2.62536158 5.80395478 1.00021459 5.84277195 -0.625 5.875 C-1.52992188 5.89820313 -2.43484375 5.92140625 -3.3671875 5.9453125 C-5.75 5.75 -5.75 5.75 -7.75 3.75 C-5.15187156 0.32047046 -4.43092205 -0.2953948 0 0 Z " fill="#292929" transform="translate(753.75,218.25)"/>
<path d="M0 0 C0.99 0.495 0.99 0.495 2 1 C2.1964031 4.29119935 2.38060745 7.58296934 2.5625 10.875 C2.61857422 11.81214844 2.67464844 12.74929687 2.73242188 13.71484375 C2.78076172 14.61074219 2.82910156 15.50664062 2.87890625 16.4296875 C2.94960327 17.67081299 2.94960327 17.67081299 3.02172852 18.93701172 C3 21 3 21 2 23 C1.34 23 0.68 23 0 23 C0 15.41 0 7.82 0 0 Z " fill="#101010" transform="translate(486,199)"/>
</svg>
